<?xml version="1.0" encoding="UTF-8"?> <svg xmlns="http://www.w3.org/2000/svg" preserveAspectRatio="meet" id="wabisabi-logo" data-name="WABISABI" viewBox="0 0 204.1 20"><g data-name="logo"><path d="M21 .4h2.6l-5.5 19.2h-2L12.7 8a16.7 16.7 0 01-.8-3l-.8 3.1-3.3 11.5h-2L0 .4h2.7L5.8 11c.5 1.7.9 3.6 1 4.2L8 11 10.9.4h2l3 10.6c.5 1.3.8 2.7 1.2 4.1l1-4.1z" data-name="Path 9"></path><path d="M32.9 19.6h-2.7L37.1.4h2.8l6.8 19.2H44l-1.9-5.5h-7.3zm6.3-14a15.5 15.5 0 01-.7-2.3h-.1a15.5 15.5 0 01-.7 2.3l-2.2 6.3h5.9z" data-name="Path 10" class="a_1 flip"></path><path d="M56.3 19.6V.4h7.6A9.5 9.5 0 0168 1a4.7 4.7 0 012.6 4.4 4.1 4.1 0 01-3 4 4.6 4.6 0 013.6 4.7 4.8 4.8 0 01-2.6 4.7 9.6 9.6 0 01-4.6.8zM66.5 3a6.7 6.7 0 00-2.8-.3h-5v5.8h5a6.7 6.7 0 002.8-.3 2.9 2.9 0 001.6-2.6A2.7 2.7 0 0066.5 3m-7.8 14.4h5.2a7.7 7.7 0 003-.3 3.4 3.4 0 001.9-3.1 3 3 0 00-1.4-2.6 6.3 6.3 0 00-3.6-.7h-5.1z" data-name="Path 11" class="b_1 "></path><path d="M81.8.4h2.5v19.29h-2.5z" data-name="Rectangle 5"></path><path d="M139.9 4.8a5.9 5.9 0 00-5.2-2.6c-2.3 0-4.1 1.1-4.1 3s1.1 2.4 3.4 3l2.7.6c3.1.9 5.6 2 5.6 5.4S139.1 20 135 20a8.8 8.8 0 01-7.7-4l2.1-1.4a6.2 6.2 0 005.8 3.1c2.5 0 4.5-1.1 4.5-3.3s-1.5-2.6-4-3.3l-2.3-.6c-2.8-.7-5.2-1.6-5.2-5s3-5.5 6.5-5.5a8.6 8.6 0 017 3.2z" data-name="Path 12"></path><path d="M154.7 5.9h7.3l2-5.5h2.6l-6.7 19.2H157L150.1.4h2.7zm6.6 2.2h-5.9l2.2 6.3.8 2.3a15.5 15.5 0 01.7-2.3z" data-name="Path 13" class="a_2 flip"></path><path d="M183.9.4a9.4 9.4 0 014.6.8 4.9 4.9 0 012.6 4.6 4.6 4.6 0 01-3.6 4.7 4.3 4.3 0 013 4.1 5.1 5.1 0 01-2.6 4.4 9.5 9.5 0 01-4.1.6h-7.6V.4zm-5.2 8.9h5.2a6 6 0 003.4-.7A3.2 3.2 0 00188 4a3.2 3.2 0 00-1.2-1.1 7.2 7.2 0 00-2.9-.3h-5.2zm9.3 5.1a2.7 2.7 0 00-1.6-2.6 5.5 5.5 0 00-2.8-.4h-4.9v5.9h4.9a7 7 0 002.9-.3 2.6 2.6 0 001.5-2.6" data-name="Path 14" class="b_2 "></path><path d="M201.7.4h2.5v19.29h-2.5z" data-name="Rectangle 6"></path></g></svg> 